<?xml version="1.0" encoding="utf-8"?>
<!-- Generator: Adobe Illustrator 24.1.3, SVG Export Plug-In . SVG Version: 6.00 Build 0)  -->
<svg version="1.1" id="Layer_1" xmlns="http://www.w3.org/2000/svg" xmlns:xlink="http://www.w3.org/1999/xlink" x="0px" y="0px"
	 viewBox="0 0 300 120" style="enable-background:new 0 0 300 120;" xml:space="preserve">
<style type="text/css">
	.st0{fill:#E07A5F;}
</style>
<g>
	<path class="st0" d="M152.8,93.1c-17.9,0-32.9-0.8-39.5-1.7l-2.4-0.3c-26.7-3.8-63.2-9.1-67.5-26.5c-1.1-4.4,0.2-8.8,3.8-13.3
		c10.1-12.6,37.5-22.7,49.4-22.4c1.3,0,2.5,0.8,2.9,2.1s0.2,2.6-0.8,3.5C91.9,41,84.6,48.9,80.6,54.2c2.1-1.4,4.4-3.1,6.5-4.6
		c13.7-9.8,32.4-23.3,47.3-22.4c1.3,0.1,2.5,0.9,2.9,2.2c0.4,1.3,0,2.6-1,3.5c-10.2,8.8-21.2,19.6-25.5,25.2c4.2-1.9,11-6,16.8-9.5
		c15.9-9.6,34-20.4,45.5-20.1c1.4,0,2.6,0.9,3,2.2s0,2.7-1,3.6c-10.6,8.5-22.2,18.7-28.1,24.9c3.4-1.7,7.6-4.3,11.7-6.8
		c14.4-8.7,32.3-19.5,47-18.7c23.2,1.3,49.8,17.7,49.4,37c-0.1,2.9-1.5,5.6-4.2,7.9C237.6,89.9,189.3,93.1,152.8,93.1z M87.3,36.6
		c-12,2.9-28.6,10.5-35.2,18.7c-2.2,2.8-3.1,5.4-2.5,7.7c0,0,0,0,0,0c3.3,13.1,41.5,18.6,62.1,21.6l2.4,0.4
		c24.2,3.5,116,2.8,132.5-11.2c1.9-1.6,1.9-2.8,1.9-3.1c0.3-13.9-21.6-29.2-43.3-30.4c-12.7-0.7-30.4,10-43.2,17.7
		c-10.2,6.2-16.3,9.7-20.5,9.9c-3.3,0.1-4.3-2-4.6-2.7c-1-2.7-0.4-6,16.8-21.3c2.1-1.9,4.2-3.7,6.2-5.4c-9.2,3.9-20.2,10.5-29,15.8
		c-16.6,10-22.3,13-26.1,10.9c-1.3-0.7-2.1-2-2.3-3.5c-0.3-2.7,1.3-7.1,14.9-20.3c2.1-2.1,4.2-4.1,6.2-5.9
		c-11.1,3.8-23.7,12.9-32.9,19.5C81,62,77.4,64.4,74.4,63.8c-1.1-0.2-2.1-0.9-2.7-1.8C70.7,60.4,68.1,56.3,87.3,36.6z"/>
</g>
<g>
	<path class="st0" d="M37.1,108.5c-9.9,0-14.8-4.9-14.8-14.8V71.4c0-5-2.5-7.5-7.5-7.5c-1,0-1.9-0.3-2.6-1c-0.7-0.7-1.1-1.6-1.1-2.6
		c0-1.1,0.4-2,1.1-2.7c0.7-0.7,1.6-1,2.6-1c5,0,7.5-2.5,7.5-7.5V26.7c0-10,4.9-14.9,14.8-14.9c1,0,1.9,0.4,2.6,1.1
		c0.7,0.7,1,1.6,1,2.7c0,1-0.3,1.9-1,2.6c-0.7,0.7-1.6,1-2.6,1c-5,0-7.5,2.5-7.5,7.5V49c0,2.4-0.3,4.5-1,6.4
		c-0.6,1.8-1.6,3.5-2.8,4.9c2.5,2.7,3.7,6.4,3.7,11.1v22.3c0,4.9,2.5,7.4,7.5,7.4c1,0,1.9,0.4,2.6,1.1c0.7,0.7,1,1.6,1,2.6
		c0,1.1-0.3,2-1,2.7C39,108.1,38.1,108.5,37.1,108.5z"/>
</g>
<g>
	<path class="st0" d="M260.9,11.8c9.9,0,14.8,4.9,14.8,14.8v22.3c0,5,2.5,7.5,7.5,7.5c1,0,1.9,0.3,2.6,1c0.7,0.7,1.1,1.6,1.1,2.6
		c0,1.1-0.4,2-1.1,2.7c-0.7,0.7-1.6,1-2.6,1c-5,0-7.5,2.5-7.5,7.5v22.3c0,10-4.9,14.9-14.8,14.9c-1,0-1.9-0.4-2.6-1.1
		c-0.7-0.7-1-1.6-1-2.7c0-1,0.3-1.9,1-2.6c0.7-0.7,1.6-1,2.6-1c5,0,7.5-2.5,7.5-7.5V71.3c0-2.4,0.3-4.5,1-6.4
		c0.6-1.8,1.6-3.5,2.8-4.9c-2.5-2.7-3.7-6.4-3.7-11.1V26.6c0-4.9-2.5-7.4-7.5-7.4c-1,0-1.9-0.4-2.6-1.1c-0.7-0.7-1-1.6-1-2.6
		c0-1.1,0.3-2,1-2.7C259.1,12.2,259.9,11.8,260.9,11.8z"/>
</g>
</svg>
